<?xml version="1.0" standalone="no"?>
<!DOCTYPE svg PUBLIC "-//W3C//DTD SVG 20010904//EN"
        "http://www.w3.org/TR/2001/REC-SVG-20010904/DTD/svg10.dtd">
<svg version="1.0" xmlns="http://www.w3.org/2000/svg"
     width="700.000000pt" height="700.000000pt" viewBox="0 0 700.000000 700.000000"
     preserveAspectRatio="xMidYMid meet">
    <metadata>
        Created by potrace 1.14, written by Peter Selinger 2001-2017
    </metadata>
    <g transform="translate(0.000000,700.000000) scale(0.100000,-0.100000)"
       fill="#000000" stroke="none">
        <path d="M3378 6415 c-2 -1 -48 -5 -103 -9 -55 -3 -118 -9 -140 -12 -91 -12
-224 -36 -285 -50 -36 -9 -72 -17 -81 -19 -51 -11 -240 -73 -339 -112 -261
-103 -488 -232 -720 -412 -123 -95 -132 -103 -275 -246 -174 -174 -276 -303
-431 -545 -181 -284 -350 -758 -390 -1095 -4 -27 -8 -52 -9 -55 -8 -13 -19
-226 -19 -360 0 -226 11 -345 50 -545 109 -574 381 -1091 789 -1500 139 -140
170 -167 285 -256 235 -181 461 -309 722 -413 125 -49 360 -121 430 -131 23
-4 45 -8 48 -10 16 -10 239 -43 350 -52 149 -12 562 -4 589 11 3 2 33 6 66 10
50 5 133 21 324 62 63 13 336 111 439 156 551 245 1021 660 1322 1167 211 356
333 705 394 1131 26 179 26 538 1 730 -13 91 -37 227 -50 280 -8 30 -16 66
-19 80 -19 95 -105 344 -158 460 -172 368 -346 619 -612 885 -301 300 -621
506 -1041 670 -11 5 -22 9 -25 9 -3 1 -41 13 -85 28 -207 68 -411 110 -645
133 -64 7 -377 15 -382 10z"/>
    </g>
</svg>
